<?xml version="1.0" encoding="UTF-8" standalone="no"?>
<!DOCTYPE svg PUBLIC "-//W3C//DTD SVG 1.1//EN" "http://www.w3.org/Graphics/SVG/1.1/DTD/svg11.dtd">
<svg width="100%" height="100%" viewBox="0 0 1024 1024" version="1.1" xmlns="http://www.w3.org/2000/svg" xmlns:xlink="http://www.w3.org/1999/xlink" xml:space="preserve" xmlns:serif="http://www.serif.com/" style="fill-rule:evenodd;clip-rule:evenodd;stroke-linejoin:round;stroke-miterlimit:2;">
    <g transform="matrix(1.63743,0,0,1.63743,-233.998,-119.379)">
        <g transform="matrix(0.47007,0,0,0.47007,82.2028,45.1082)">
            <rect x="155.12" y="85.121" width="389.76" height="389.76" style="fill-rule:nonzero;"/>
        </g>
        <g transform="matrix(0.47007,0,0,0.47007,82.2028,45.1082)">
            <path d="M261.52,383.04L344.399,300.161L261.52,217.282L245.84,233.52L312.481,300.161L245.84,367.36L261.52,383.04Z" style="fill:white;fill-rule:nonzero;"/>
        </g>
        <g transform="matrix(0.47007,0,0,0.47007,82.2028,45.1082)">
            <rect x="342.72" y="357.28" width="87.922" height="22.398" style="fill:white;fill-rule:nonzero;"/>
        </g>
    </g>
    <g transform="matrix(1.63743,0,0,1.63743,-233.998,564.621)">
        <g transform="matrix(0.47007,0,0,0.47007,82.2028,45.1082)">
            <path d="M544.88,85.121L155.12,85.121L155.12,474.881L544.88,474.881L544.88,85.121ZM522.482,453.041L177.522,453.037L177.522,107.517L522.482,107.517L522.482,453.041Z" style="fill-rule:nonzero;"/>
        </g>
        <g transform="matrix(0.47007,0,0,0.47007,82.2028,45.1082)">
            <path d="M261.52,383.04L344.399,300.161L261.52,217.282L245.84,233.52L312.481,300.161L245.84,367.36L261.52,383.04Z" style="fill-rule:nonzero;"/>
        </g>
        <g transform="matrix(0.47007,0,0,0.47007,82.2028,45.1082)">
            <rect x="342.72" y="357.28" width="87.922" height="22.398" style="fill-rule:nonzero;"/>
        </g>
    </g>
    <g transform="matrix(1.63743,0,0,1.63743,-233.998,222.621)">
        <g transform="matrix(0.47007,0,0,0.47007,82.2028,45.1082)">
            <path d="M544.88,85.121L155.12,85.121L155.12,474.881L544.88,474.881L544.88,85.121ZM522.482,453.041L177.522,453.037L177.522,107.517L522.482,107.517L522.482,453.041Z" style="fill-rule:nonzero;"/>
        </g>
        <g transform="matrix(0.47007,0,0,0.47007,82.2028,45.1082)">
            <path d="M261.52,383.04L344.399,300.161L261.52,217.282L245.84,233.52L312.481,300.161L245.84,367.36L261.52,383.04Z" style="fill-rule:nonzero;"/>
        </g>
        <g transform="matrix(0.47007,0,0,0.47007,82.2028,45.1082)">
            <rect x="342.72" y="357.28" width="87.922" height="22.398" style="fill-rule:nonzero;"/>
        </g>
    </g>
    <g transform="matrix(1.63743,0,0,1.63743,106.838,-119.379)">
        <g transform="matrix(0.47007,0,0,0.47007,82.2028,45.1082)">
            <path d="M544.88,85.121L155.12,85.121L155.12,474.881L544.88,474.881L544.88,85.121ZM522.482,453.041L177.522,453.037L177.522,107.517L522.482,107.517L522.482,453.041Z" style="fill-rule:nonzero;"/>
        </g>
        <g transform="matrix(0.47007,0,0,0.47007,82.2028,45.1082)">
            <path d="M261.52,383.04L344.399,300.161L261.52,217.282L245.84,233.52L312.481,300.161L245.84,367.36L261.52,383.04Z" style="fill-rule:nonzero;"/>
        </g>
        <g transform="matrix(0.47007,0,0,0.47007,82.2028,45.1082)">
            <rect x="342.72" y="357.28" width="87.922" height="22.398" style="fill-rule:nonzero;"/>
        </g>
    </g>
    <g transform="matrix(1.63743,0,0,1.63743,106.838,564.621)">
        <g transform="matrix(0.47007,0,0,0.47007,82.2028,45.1082)">
            <path d="M544.88,85.121L155.12,85.121L155.12,474.881L544.88,474.881L544.88,85.121ZM522.482,453.041L177.522,453.037L177.522,107.517L522.482,107.517L522.482,453.041Z" style="fill-rule:nonzero;"/>
        </g>
        <g transform="matrix(0.47007,0,0,0.47007,82.2028,45.1082)">
            <path d="M261.52,383.04L344.399,300.161L261.52,217.282L245.84,233.52L312.481,300.161L245.84,367.36L261.52,383.04Z" style="fill-rule:nonzero;"/>
        </g>
        <g transform="matrix(0.47007,0,0,0.47007,82.2028,45.1082)">
            <rect x="342.72" y="357.28" width="87.922" height="22.398" style="fill-rule:nonzero;"/>
        </g>
    </g>
    <g transform="matrix(1.63743,0,0,1.63743,106.838,222.621)">
        <g transform="matrix(0.47007,0,0,0.47007,82.2028,45.1082)">
            <path d="M544.88,85.121L155.12,85.121L155.12,474.881L544.88,474.881L544.88,85.121ZM522.482,453.041L177.522,453.037L177.522,107.517L522.482,107.517L522.482,453.041Z" style="fill-rule:nonzero;"/>
        </g>
        <g transform="matrix(0.47007,0,0,0.47007,82.2028,45.1082)">
            <path d="M261.52,383.04L344.399,300.161L261.52,217.282L245.84,233.52L312.481,300.161L245.84,367.36L261.52,383.04Z" style="fill-rule:nonzero;"/>
        </g>
        <g transform="matrix(0.47007,0,0,0.47007,82.2028,45.1082)">
            <rect x="342.72" y="357.28" width="87.922" height="22.398" style="fill-rule:nonzero;"/>
        </g>
    </g>
    <g transform="matrix(1.63743,0,0,1.63743,450.002,-119.379)">
        <g transform="matrix(0.47007,0,0,0.47007,82.2028,45.1082)">
            <path d="M544.88,85.121L155.12,85.121L155.12,474.881L544.88,474.881L544.88,85.121ZM522.482,453.041L177.522,453.037L177.522,107.517L522.482,107.517L522.482,453.041Z" style="fill-rule:nonzero;"/>
        </g>
        <g transform="matrix(0.47007,0,0,0.47007,82.2028,45.1082)">
            <path d="M261.52,383.04L344.399,300.161L261.52,217.282L245.84,233.52L312.481,300.161L245.84,367.36L261.52,383.04Z" style="fill-rule:nonzero;"/>
        </g>
        <g transform="matrix(0.47007,0,0,0.47007,82.2028,45.1082)">
            <rect x="342.72" y="357.28" width="87.922" height="22.398" style="fill-rule:nonzero;"/>
        </g>
    </g>
    <g transform="matrix(1.63743,0,0,1.63743,450.002,564.621)">
        <g transform="matrix(0.47007,0,0,0.47007,82.2028,45.1082)">
            <path d="M544.88,85.121L155.12,85.121L155.12,474.881L544.88,474.881L544.88,85.121ZM522.482,453.041L177.522,453.037L177.522,107.517L522.482,107.517L522.482,453.041Z" style="fill-rule:nonzero;"/>
        </g>
        <g transform="matrix(0.47007,0,0,0.47007,82.2028,45.1082)">
            <path d="M261.52,383.04L344.399,300.161L261.52,217.282L245.84,233.52L312.481,300.161L245.84,367.36L261.52,383.04Z" style="fill-rule:nonzero;"/>
        </g>
        <g transform="matrix(0.47007,0,0,0.47007,82.2028,45.1082)">
            <rect x="342.72" y="357.28" width="87.922" height="22.398" style="fill-rule:nonzero;"/>
        </g>
    </g>
    <g transform="matrix(1.63743,0,0,1.63743,450.002,222.621)">
        <g transform="matrix(0.47007,0,0,0.47007,82.2028,45.1082)">
            <path d="M544.88,85.121L155.12,85.121L155.12,474.881L544.88,474.881L544.88,85.121ZM522.482,453.041L177.522,453.037L177.522,107.517L522.482,107.517L522.482,453.041Z" style="fill-rule:nonzero;"/>
        </g>
        <g transform="matrix(0.47007,0,0,0.47007,82.2028,45.1082)">
            <path d="M261.52,383.04L344.399,300.161L261.52,217.282L245.84,233.52L312.481,300.161L245.84,367.36L261.52,383.04Z" style="fill-rule:nonzero;"/>
        </g>
        <g transform="matrix(0.47007,0,0,0.47007,82.2028,45.1082)">
            <rect x="342.72" y="357.28" width="87.922" height="22.398" style="fill-rule:nonzero;"/>
        </g>
    </g>
</svg>
